<svg width="24" height="25" viewBox="0 0 24 25" fill="none" xmlns="http://www.w3.org/2000/svg">
<g id="online-learning" clip-path="url(#clip0_5417_14587)">
<g id="Group">
<path id="Vector" fill-rule="evenodd" clip-rule="evenodd" d="M18.8595 17.4359H19.3853V9.22266C19.3853 8.80866 19.05 8.47266 18.6353 8.47266C17.4563 8.47266 16.0103 8.47266 16.0103 8.47266C15.5963 8.47266 15.2603 8.13666 15.2603 7.72266C15.2603 7.30866 15.5963 6.97266 16.0103 6.97266C16.0103 6.97266 17.4563 6.97266 18.6353 6.97266C19.878 6.97266 20.8853 7.97991 20.8853 9.22266V17.4359H21.6353C22.05 17.4359 22.3853 17.7719 22.3853 18.1859C22.3853 18.1859 22.3853 18.5422 22.3853 18.9727C22.3853 19.5697 22.1483 20.1419 21.7268 20.5634C21.3045 20.9857 20.7323 21.2227 20.1353 21.2227H3.63525C3.039 21.2227 2.46675 20.9857 2.0445 20.5634C1.62225 20.1419 1.38525 19.5697 1.38525 18.9727V18.1859C1.38525 17.7719 1.72125 17.4359 2.13525 17.4359H2.88525V9.22266C2.88525 7.97991 3.89325 6.97266 5.13525 6.97266H7.76025C8.17425 6.97266 8.51025 7.30866 8.51025 7.72266C8.51025 8.13666 8.17425 8.47266 7.76025 8.47266C7.76025 8.47266 6.315 8.47266 5.13525 8.47266C4.72125 8.47266 4.38525 8.80866 4.38525 9.22266V17.4359H4.91176L5.47275 14.9669C6.00525 12.6217 8.0895 10.9574 10.4948 10.9574H11.3708C11.3805 10.9574 11.3903 10.9574 11.3993 10.9574H12.3713C12.381 10.9574 12.3908 10.9574 12.4005 10.9574H13.2765C15.6818 10.9574 17.766 12.6217 18.2985 14.9669L18.8595 17.4359ZM12.6353 18.9359V19.7227H20.1353C20.3348 19.7227 20.5253 19.6439 20.6663 19.5029C20.8065 19.3627 20.8853 19.1714 20.8853 18.9727V18.9359H12.6353ZM11.1353 18.9359H2.88525V18.9727C2.88525 19.1714 2.96475 19.3627 3.105 19.5029C3.246 19.6439 3.4365 19.7227 3.63525 19.7227H11.1353V18.9359ZM10.4243 12.4582C8.74951 12.4904 7.30726 13.6604 6.93526 15.2992L6.45 17.4359H11.7998C11.6843 17.4232 11.571 17.3827 11.4705 17.3159L9.9705 16.3192C9.70575 16.1437 9.5805 15.8197 9.65775 15.5122L10.4243 12.4582ZM13.347 12.4582L14.1128 15.5122C14.19 15.8197 14.0655 16.1437 13.8008 16.3192L12.3008 17.3159C12.1995 17.3827 12.087 17.4232 11.9715 17.4359H17.3213L16.836 15.2992C16.464 13.6604 15.0218 12.4904 13.347 12.4582ZM11.2418 15.3629L11.8853 15.7904L12.5295 15.3629L11.8853 12.7972L11.2418 15.3629ZM11.8853 4.72266C10.2533 4.72266 8.92125 6.06366 8.92125 7.72266C8.92125 9.38166 10.2533 10.7227 11.8853 10.7227C13.518 10.7227 14.8493 9.38166 14.8493 7.72266C14.8493 6.06366 13.518 4.72266 11.8853 4.72266ZM11.8853 6.22266C12.6968 6.22266 13.3493 6.89841 13.3493 7.72266C13.3493 8.54691 12.6968 9.22266 11.8853 9.22266C11.0745 9.22266 10.4213 8.54691 10.4213 7.72266C10.4213 6.89841 11.0745 6.22266 11.8853 6.22266Z" fill="#8E8E8E"/>
</g>
</g>
<defs>
<clipPath id="clip0_5417_14587">
<rect width="24" height="24" fill="white" transform="translate(0 0.972656)"/>
</clipPath>
</defs>
</svg>
