<svg width="20" height="21" viewBox="0 0 20 21" fill="none" xmlns="http://www.w3.org/2000/svg">
<g id="find-job" clip-path="url(#clip0_5417_14607)">
<path id="Vector" fill-rule="evenodd" clip-rule="evenodd" d="M14.5676 12.6831L19.5122 17.6277C19.8245 17.9403 20 18.3642 20 18.8062C20 19.2482 19.8245 19.6721 19.5122 19.9847C19.1995 20.2971 18.7756 20.4726 18.3336 20.4726C17.8916 20.4726 17.4677 20.2971 17.1551 19.9847L12.2105 15.0402C10.9318 15.8685 9.4403 16.3082 7.91674 16.306C3.54758 16.306 7.62939e-05 12.7585 7.62939e-05 8.38932C7.62939e-05 4.02016 3.54758 0.472656 7.91674 0.472656C12.2859 0.472656 15.8334 4.02016 15.8334 8.38932C15.8334 9.97141 15.3684 11.446 14.5676 12.6831ZM14.0717 13.366L18.923 18.2168C19.079 18.3733 19.1667 18.5852 19.1667 18.8062C19.1667 19.0272 19.079 19.2391 18.923 19.3956C18.5976 19.7206 18.0697 19.7206 17.7442 19.3956L12.8934 14.5443C13.3264 14.1939 13.7213 13.7989 14.0717 13.366ZM12.0134 14.1668C10.8172 15.0183 9.38499 15.4748 7.91674 15.4727C4.00716 15.4727 0.83341 12.2989 0.83341 8.38932C0.83341 4.47974 4.00716 1.30599 7.91674 1.30599C11.8263 1.30599 15.0001 4.47974 15.0001 8.38932C15.0001 9.91516 14.5167 11.3289 13.6942 12.486L13.6851 12.4993C13.2275 13.1398 12.6672 13.7001 12.0267 14.1577L12.0134 14.1668ZM7.91674 2.13932C11.3663 2.13932 14.1667 4.93974 14.1667 8.38932C14.1667 11.8389 11.3663 14.6393 7.91674 14.6393C4.46716 14.6393 1.66674 11.8389 1.66674 8.38932C1.66674 4.93974 4.46716 2.13932 7.91674 2.13932ZM7.91674 2.97266C4.92716 2.97266 2.50008 5.39974 2.50008 8.38932C2.50008 11.3789 4.92716 13.806 7.91674 13.806C10.9063 13.806 13.3334 11.3789 13.3334 8.38932C13.3334 5.39974 10.9063 2.97266 7.91674 2.97266ZM10.4167 6.30599H11.2501C11.3606 6.30599 11.4666 6.34989 11.5447 6.42803C11.6228 6.50617 11.6667 6.61215 11.6667 6.72266V8.38932C11.6668 8.47681 11.6392 8.56208 11.5881 8.63305C11.5369 8.70402 11.4647 8.75709 11.3817 8.78474L11.2501 8.82849V11.7227C11.2501 11.8332 11.2062 11.9391 11.128 12.0173C11.0499 12.0954 10.9439 12.1393 10.8334 12.1393H5.00008C4.88957 12.1393 4.78359 12.0954 4.70545 12.0173C4.62731 11.9391 4.58341 11.8332 4.58341 11.7227V8.82849L4.45174 8.78474C4.36874 8.75709 4.29655 8.70402 4.24539 8.63305C4.19424 8.56208 4.16672 8.47681 4.16674 8.38932V6.72266C4.16674 6.61215 4.21064 6.50617 4.28878 6.42803C4.36692 6.34989 4.4729 6.30599 4.58341 6.30599H5.41674V5.47266C5.41674 5.25164 5.50454 5.03968 5.66082 4.8834C5.8171 4.72712 6.02906 4.63932 6.25008 4.63932H9.58341C9.80442 4.63932 10.0164 4.72712 10.1727 4.8834C10.3289 5.03968 10.4167 5.25164 10.4167 5.47266V6.30599ZM10.4167 9.10641V11.306H5.41674V9.10641L6.66674 9.52307V9.63932C6.66674 9.86034 6.75454 10.0723 6.91082 10.2286C7.0671 10.3849 7.27906 10.4727 7.50008 10.4727H8.33341C8.55442 10.4727 8.76638 10.3849 8.92266 10.2286C9.07895 10.0723 9.16674 9.86034 9.16674 9.63932V9.52307L10.4167 9.10641ZM7.50008 9.21474V8.80599H8.33341V9.63932H7.50008V9.21474ZM9.99966 7.13932H10.8334V8.08891L9.15216 8.64932C9.11549 8.45901 9.01372 8.2874 8.86433 8.16393C8.71493 8.04046 8.52722 7.97283 8.33341 7.97266H7.50008C7.09383 7.97266 6.75466 8.26432 6.68133 8.64932L5.00008 8.08891V7.13932H9.99966ZM9.58341 6.30599H6.25008V5.47266H9.58341V6.30599Z" fill="#8E8E8E"/>
</g>
<defs>
<clipPath id="clip0_5417_14607">
<rect width="20" height="20" fill="white" transform="matrix(-1 0 0 1 20 0.472656)"/>
</clipPath>
</defs>
</svg>
