<svg width="22" height="23" viewBox="0 0 22 23" fill="none" xmlns="http://www.w3.org/2000/svg">
<path id="Vector" fill-rule="evenodd" clip-rule="evenodd" d="M5.999 0.222656C4.93899 0.227131 3.92368 0.6502 3.17413 1.39974C2.42459 2.14929 2.00152 3.1646 1.99705 4.22461C1.99705 5.16459 2.34304 6.02158 2.89403 6.70657C1.19106 7.50656 -0.00292969 9.22554 -0.00292969 11.2225C0.0260699 12.5265 1.96805 12.5265 1.99705 11.2225C1.99397 10.8273 2.06968 10.4354 2.21975 10.0698C2.36983 9.70412 2.59125 9.37204 2.87111 9.09294C3.15096 8.81383 3.48362 8.59329 3.84966 8.44419C4.2157 8.29509 4.60779 8.22042 5.00301 8.22456H7.00298C7.39767 8.22068 7.78915 8.29559 8.15452 8.4449C8.51989 8.59421 8.8518 8.81493 9.13081 9.09412C9.40981 9.37331 9.6303 9.70536 9.77937 10.0708C9.92844 10.4363 10.0031 10.8278 9.99894 11.2225C9.99894 12.5575 12.0009 12.5575 12.0009 11.2225C11.9968 10.8278 12.0714 10.4363 12.2205 10.0708C12.3696 9.70536 12.5901 9.37331 12.8691 9.09412C13.1481 8.81493 13.48 8.59421 13.8453 8.4449C14.2107 8.29559 14.6022 8.22068 14.9969 8.22456H16.9969C17.3921 8.22042 17.7842 8.29509 18.1502 8.44419C18.5162 8.59329 18.8489 8.81383 19.1288 9.09294C19.4086 9.37204 19.63 9.70412 19.7801 10.0698C19.9302 10.4354 20.0059 10.8273 20.0028 11.2225C20.0028 12.5565 22.0028 12.5565 22.0028 11.2225C22.0028 9.22554 20.8088 7.50556 19.1058 6.70657C19.6568 6.02158 20.0028 5.16559 20.0028 4.22461C19.9983 3.1646 19.5753 2.14929 18.8257 1.39974C18.0762 0.6502 17.0609 0.227131 16.0009 0.222656C13.8039 0.222656 12.0009 2.02763 12.0009 4.22461C12.0009 5.16459 12.3439 6.01958 12.8939 6.70457C12.1399 7.05857 11.4939 7.59456 11.0009 8.25556C10.5067 7.59054 9.85576 7.05807 9.10596 6.70557C9.65595 6.01958 9.99894 5.16459 9.99894 4.22461C9.995 3.16478 9.57237 2.14947 8.82314 1.39987C8.07392 0.650268 7.05882 0.227134 5.999 0.222656ZM5.999 2.22263C7.11498 2.22263 7.99897 3.10862 7.99897 4.22461C7.99897 5.34059 7.11498 6.22458 5.999 6.22458C4.88301 6.22458 3.99902 5.34059 3.99902 4.22461C3.99902 3.10862 4.88301 2.22263 5.999 2.22263ZM16.0009 2.22263C17.1169 2.22263 18.0028 3.10862 18.0028 4.22461C18.0028 5.34059 17.1169 6.22458 16.0009 6.22458C14.8849 6.22458 14.0009 5.34059 14.0009 4.22461C14.0009 3.10862 14.8849 2.22263 16.0009 2.22263ZM5.999 10.2245C4.93899 10.229 3.92368 10.6521 3.17413 11.4016C2.42459 12.1512 2.00152 13.1665 1.99705 14.2265C1.99705 15.1675 2.34204 16.0245 2.89403 16.7104C1.19106 17.5104 -0.00292969 19.2274 -0.00292969 21.2244C0.0260699 22.5284 1.96805 22.5284 1.99705 21.2244C1.99397 20.8292 2.06968 20.4373 2.21975 20.0716C2.36983 19.706 2.59125 19.3739 2.87111 19.0948C3.15096 18.8157 3.48362 18.5952 3.84966 18.4461C4.2157 18.297 4.60779 18.2223 5.00301 18.2264H7.00298C7.39767 18.2226 7.78915 18.2975 8.15452 18.4468C8.51989 18.5961 8.8518 18.8168 9.13081 19.096C9.40981 19.3752 9.6303 19.7072 9.77937 20.0727C9.92844 20.4382 10.0031 20.8297 9.99894 21.2244C9.99894 22.5594 12.0009 22.5594 12.0009 21.2244C11.9968 20.8297 12.0714 20.4382 12.2205 20.0727C12.3696 19.7072 12.5901 19.3752 12.8691 19.096C13.1481 18.8168 13.48 18.5961 13.8453 18.4468C14.2107 18.2975 14.6022 18.2226 14.9969 18.2264H16.9969C17.3921 18.2223 17.7842 18.297 18.1502 18.4461C18.5162 18.5952 18.8489 18.8157 19.1288 19.0948C19.4086 19.3739 19.63 19.706 19.7801 20.0716C19.9302 20.4373 20.0059 20.8292 20.0028 21.2244C20.0028 22.5584 22.0028 22.5584 22.0028 21.2244C22.0028 19.2274 20.8088 17.5094 19.1058 16.7104C19.6806 16.0097 19.9973 15.1328 20.0028 14.2265C19.9983 13.1665 19.5753 12.1512 18.8257 11.4016C18.0762 10.6521 17.0609 10.229 16.0009 10.2245C13.8039 10.2245 12.0009 12.0295 12.0009 14.2265C12.0009 15.1665 12.3429 16.0235 12.8939 16.7084C12.1399 17.0624 11.4939 17.5964 11.0009 18.2584C10.5069 17.5933 9.85585 17.0608 9.10596 16.7084C9.65595 16.0235 9.99894 15.1665 9.99894 14.2265C9.995 13.1667 9.57237 12.1513 8.82314 11.4017C8.07392 10.6521 7.05882 10.229 5.999 10.2245ZM5.999 12.2265C7.11498 12.2265 7.99897 13.1105 7.99897 14.2265C7.99897 15.3425 7.11498 16.2265 5.999 16.2265C4.88301 16.2265 3.99902 15.3425 3.99902 14.2265C3.99902 13.1105 4.88301 12.2265 5.999 12.2265ZM16.0009 12.2265C17.1169 12.2265 18.0028 13.1105 18.0028 14.2265C18.0028 15.3425 17.1169 16.2265 16.0009 16.2265C14.8849 16.2265 14.0009 15.3425 14.0009 14.2265C14.0009 13.1105 14.8849 12.2265 16.0009 12.2265Z" fill="white"/>
</svg>
