<svg width="20" height="20" viewBox="0 0 20 20" fill="none" xmlns="http://www.w3.org/2000/svg">
<g id="Vector">
<path id="Vector-12" fill-rule="evenodd" clip-rule="evenodd" d="M1 9.99977C0.999841 13.3592 2.87086 16.4391 5.85241 17.9873C8.83396 19.5355 12.4296 19.2942 15.1776 17.3616L19 17.7139V9.99977C19 5.02934 14.9706 1 10 1C5.02944 1 1 5.02934 1 9.99977Z" fill="#3F85EC" stroke="#3F85EC" stroke-width="1.5" stroke-linecap="round" stroke-linejoin="round"/>
<path id="Vector-13" d="M6.14453 11.8219C5.73032 11.8219 5.39453 12.1577 5.39453 12.5719C5.39453 12.9861 5.73032 13.3219 6.14453 13.3219V11.8219ZM11.2874 13.3219C11.7016 13.3219 12.0374 12.9861 12.0374 12.5719C12.0374 12.1577 11.7016 11.8219 11.2874 11.8219V13.3219ZM6.14453 7.96484C5.73032 7.96484 5.39453 8.30063 5.39453 8.71484C5.39453 9.12906 5.73032 9.46484 6.14453 9.46484V7.96484ZM13.8588 9.46484C14.273 9.46484 14.6088 9.12906 14.6088 8.71484C14.6088 8.30063 14.273 7.96484 13.8588 7.96484V9.46484ZM6.14453 13.3219H11.2874V11.8219H6.14453V13.3219ZM6.14453 9.46484H13.8588V7.96484H6.14453V9.46484Z" fill="white"/>
</g>
</svg>
