<svg width="232" height="227" viewBox="0 0 232 227" fill="none" xmlns="http://www.w3.org/2000/svg">
<g id="ep:video-play">
<path id="Vector" d="M116.37 14.4375C143.186 14.4375 168.904 24.8744 187.867 43.4522C206.829 62.0301 217.482 87.227 217.482 113.5C217.482 139.773 206.829 164.97 187.867 183.548C168.904 202.126 143.186 212.563 116.37 212.563C89.5531 212.563 63.8348 202.126 44.8726 183.548C25.9104 164.97 15.2576 139.773 15.2576 113.5C15.2576 87.227 25.9104 62.0301 44.8726 43.4522C63.8348 24.8744 89.5531 14.4375 116.37 14.4375ZM116.37 198.411C139.355 198.411 161.4 189.465 177.653 173.541C193.906 157.617 203.037 136.02 203.037 113.5C203.037 90.9803 193.906 69.3829 177.653 53.4591C161.4 37.5352 139.355 28.5893 116.37 28.5893C93.384 28.5893 71.3398 37.5352 55.0865 53.4591C38.8332 69.3829 29.7022 90.9803 29.7022 113.5C29.7022 136.02 38.8332 157.617 55.0865 173.541C71.3398 189.465 93.384 198.411 116.37 198.411ZM105.536 143.657L151.716 113.5L105.536 83.3426V143.657ZM107.934 67.8888L164.239 104.669C165.723 105.639 166.939 106.952 167.781 108.492C168.622 110.033 169.062 111.753 169.062 113.5C169.062 115.247 168.622 116.967 167.781 118.508C166.939 120.048 165.723 121.361 164.239 122.331L107.934 159.111C106.303 160.177 104.406 160.788 102.448 160.881C100.49 160.974 98.5421 160.544 96.8134 159.638C95.0846 158.731 93.6394 157.382 92.6317 155.734C91.624 154.086 91.0918 152.202 91.0916 150.281V76.7054C91.0918 74.7844 91.624 72.8994 92.6317 71.2515C93.6394 69.6036 95.0846 68.2545 96.8134 67.3481C98.5421 66.4417 100.49 66.0119 102.448 66.1047C104.406 66.1974 106.303 66.8091 107.934 67.8746V67.8888Z" fill="white"/>
</g>
</svg>
