<svg width="26" height="27" viewBox="0 0 26 27" fill="none" xmlns="http://www.w3.org/2000/svg">
<g id="fluent-mdl2:machine-learning" clip-path="url(#clip0_6204_2770)">
<path id="Vector" d="M24.9466 14.1203C25.2672 14.4241 25.5161 14.7784 25.6933 15.1834C25.8705 15.5884 25.9591 16.0145 25.9591 16.4617C25.9591 16.9089 25.8747 17.3266 25.7059 17.7147C25.5372 18.1028 25.3052 18.4487 25.0098 18.7525C24.7145 19.0562 24.3728 19.2883 23.9847 19.4486C23.5966 19.6089 23.1747 19.6933 22.7191 19.7017C22.5419 19.7017 22.3647 19.6891 22.1875 19.6637L16.2264 22.638C16.2348 22.6886 16.2391 22.7392 16.2391 22.7898C16.2391 22.8405 16.2391 22.8911 16.2391 22.9417C16.2391 23.3889 16.1547 23.8066 15.9859 24.1947C15.8172 24.5828 15.5852 24.9288 15.2898 25.2325C14.9945 25.5362 14.6528 25.7683 14.2647 25.9286C13.8766 26.0889 13.4547 26.1733 12.9991 26.1817C12.5603 26.1817 12.1469 26.0973 11.7587 25.9286C11.3706 25.7598 11.0247 25.532 10.7209 25.2452C10.4172 24.9583 10.1809 24.6166 10.0122 24.22C9.84344 23.8234 9.75484 23.41 9.74641 22.9797V22.8152C9.74641 22.7645 9.75484 22.7055 9.77172 22.638L3.81063 19.6637C3.63344 19.6891 3.45625 19.7017 3.27906 19.7017C2.83188 19.7017 2.41422 19.6173 2.02609 19.4486C1.63797 19.2798 1.29203 19.0478 0.988281 18.7525C0.684531 18.4572 0.4525 18.1155 0.292188 17.7273C0.131875 17.3392 0.0475 16.9173 0.0390625 16.4617C0.0390625 15.8627 0.190938 15.31 0.494687 14.8038C0.798437 14.2975 1.21609 13.9009 1.74766 13.6141L3.9625 5.48875C3.50688 4.90656 3.27906 4.24422 3.27906 3.50172C3.27906 3.05453 3.36344 2.63687 3.53219 2.24875C3.70094 1.86063 3.93297 1.51469 4.22828 1.21094C4.52359 0.907188 4.86531 0.675156 5.25344 0.514844C5.64156 0.354531 6.06344 0.270156 6.51906 0.261719C7.10125 0.261719 7.64125 0.405156 8.13906 0.692031C8.63688 0.978906 9.03344 1.37547 9.32875 1.88172L16.6694 1.88172C16.9647 1.37547 17.3612 0.978906 17.8591 0.692031C18.3569 0.405156 18.8969 0.261719 19.4791 0.261719C19.9263 0.261719 20.3439 0.346094 20.732 0.514844C21.1202 0.683594 21.4661 0.915625 21.7698 1.21094C22.0736 1.50625 22.3056 1.84797 22.4659 2.23609C22.6262 2.62422 22.7106 3.04609 22.7191 3.50172C22.7191 3.85609 22.6642 4.19781 22.5545 4.52688C22.4448 4.85594 22.2803 5.16391 22.0609 5.45078L24.9466 14.1203ZM19.4791 16.4617C19.4791 15.9977 19.5719 15.5547 19.7575 15.1328C19.9431 14.7109 20.2131 14.3481 20.5675 14.0444L14.8848 9.77922L6.49375 16.0694L6.51906 16.4617L19.4791 16.4617ZM6.51906 6.74172C6.1225 6.74172 5.73437 6.67 5.35469 6.52656L3.53219 13.2344C3.99625 13.2766 4.43078 13.4073 4.83578 13.6267C5.24078 13.8461 5.58672 14.1414 5.87359 14.5127L13.5433 8.76672L9.11359 5.45078C8.80141 5.85578 8.42172 6.17219 7.97453 6.4C7.52734 6.62781 7.04219 6.74172 6.51906 6.74172ZM22.2255 13.2597C22.293 13.2428 22.3689 13.2344 22.4533 13.2344C22.5377 13.2344 22.6178 13.2302 22.6938 13.2217H22.8203C22.8625 13.2217 22.9047 13.2259 22.9469 13.2344L20.7067 6.50125C20.2933 6.66156 19.8841 6.74172 19.4791 6.74172C19.3103 6.74172 19.1458 6.72906 18.9855 6.70375L16.2391 8.76672L22.2255 13.2597ZM19.4791 1.88172C19.2512 1.88172 19.0403 1.92391 18.8463 2.00828C18.6522 2.09266 18.4834 2.20656 18.34 2.35C18.1966 2.49344 18.0784 2.66641 17.9856 2.86891C17.8928 3.07141 17.8506 3.28234 17.8591 3.50172C17.8591 3.72953 17.9013 3.94047 17.9856 4.13453C18.07 4.32859 18.1839 4.49734 18.3273 4.64078C18.4708 4.78422 18.6437 4.90234 18.8463 4.99516C19.0487 5.08797 19.2597 5.13016 19.4791 5.12172C19.7069 5.12172 19.9178 5.07953 20.1119 4.99516C20.3059 4.91078 20.4747 4.79688 20.6181 4.65344C20.7616 4.51 20.8797 4.33703 20.9725 4.13453C21.0653 3.93203 21.1075 3.72109 21.0991 3.50172C21.0991 3.27391 21.0569 3.06297 20.9725 2.86891C20.8881 2.67484 20.7742 2.50609 20.6308 2.36266C20.4873 2.21922 20.3144 2.10109 20.1119 2.00828C19.9094 1.91547 19.6984 1.87328 19.4791 1.88172ZM16.2391 3.50172L9.75906 3.50172L9.73375 3.89406L14.8848 7.75422L17.3275 5.91906C16.9731 5.61531 16.7031 5.2525 16.5175 4.83063C16.3319 4.40875 16.2391 3.96578 16.2391 3.50172ZM6.51906 1.88172C6.29125 1.88172 6.08031 1.92391 5.88625 2.00828C5.69219 2.09266 5.52344 2.20656 5.38 2.35C5.23656 2.49344 5.11844 2.66641 5.02563 2.86891C4.93281 3.07141 4.89062 3.28234 4.89906 3.50172C4.89906 3.72953 4.94125 3.94047 5.02563 4.13453C5.11 4.32859 5.22391 4.49734 5.36734 4.64078C5.51078 4.78422 5.68375 4.90234 5.88625 4.99516C6.08875 5.08797 6.29969 5.13016 6.51906 5.12172C6.74687 5.12172 6.95781 5.07953 7.15188 4.99516C7.34594 4.91078 7.51469 4.79688 7.65812 4.65344C7.80156 4.51 7.91969 4.33703 8.0125 4.13453C8.10531 3.93203 8.1475 3.72109 8.13906 3.50172C8.13906 3.27391 8.09688 3.06297 8.0125 2.86891C7.92812 2.67484 7.81422 2.50609 7.67078 2.36266C7.52734 2.21922 7.35437 2.10109 7.15188 2.00828C6.94938 1.91547 6.73844 1.87328 6.51906 1.88172ZM1.65906 16.4617C1.65906 16.6895 1.70125 16.9005 1.78562 17.0945C1.87 17.2886 1.98391 17.4573 2.12734 17.6008C2.27078 17.7442 2.44375 17.8623 2.64625 17.9552C2.84875 18.048 3.05969 18.0902 3.27906 18.0817C3.50688 18.0817 3.71781 18.0395 3.91188 17.9552C4.10594 17.8708 4.27469 17.7569 4.41813 17.6134C4.56156 17.47 4.67969 17.297 4.7725 17.0945C4.86531 16.892 4.9075 16.6811 4.89906 16.4617C4.89906 16.2339 4.85687 16.023 4.7725 15.8289C4.68813 15.6348 4.57422 15.4661 4.43078 15.3227C4.28734 15.1792 4.11438 15.0611 3.91188 14.9683C3.70937 14.8755 3.49844 14.8333 3.27906 14.8417C3.05125 14.8417 2.84031 14.8839 2.64625 14.9683C2.45219 15.0527 2.28344 15.1666 2.14 15.31C1.99656 15.4534 1.87844 15.6264 1.78562 15.8289C1.69281 16.0314 1.65062 16.2423 1.65906 16.4617ZM12.9991 24.5617C13.2269 24.5617 13.4378 24.5195 13.6319 24.4352C13.8259 24.3508 13.9947 24.2369 14.1381 24.0934C14.2816 23.95 14.3997 23.777 14.4925 23.5745C14.5853 23.372 14.6275 23.1611 14.6191 22.9417C14.6191 22.7139 14.5769 22.503 14.4925 22.3089C14.4081 22.1148 14.2942 21.9461 14.1508 21.8027C14.0073 21.6592 13.8344 21.5411 13.6319 21.4483C13.4294 21.3555 13.2184 21.3133 12.9991 21.3217C12.7712 21.3217 12.5603 21.3639 12.3663 21.4483C12.1722 21.5327 12.0034 21.6466 11.86 21.79C11.7166 21.9334 11.5984 22.1064 11.5056 22.3089C11.4128 22.5114 11.3706 22.7223 11.3791 22.9417C11.3791 23.1695 11.4213 23.3805 11.5056 23.5745C11.59 23.7686 11.7039 23.9373 11.8473 24.0808C11.9908 24.2242 12.1637 24.3423 12.3663 24.4352C12.5688 24.528 12.7797 24.5702 12.9991 24.5617ZM12.9991 19.7017C13.5306 19.7017 14.0327 19.8241 14.5052 20.0688C14.9777 20.3134 15.3658 20.6594 15.6695 21.1066L20.4156 18.7398C20.3228 18.6386 20.2342 18.5331 20.1498 18.4234C20.0655 18.3137 19.9853 18.1998 19.9094 18.0817L6.08875 18.0817C6.02125 18.1998 5.94531 18.3137 5.86094 18.4234C5.77656 18.5331 5.68375 18.6386 5.5825 18.7398L10.3286 21.1066C10.6239 20.6678 11.0078 20.3261 11.4803 20.0814C11.9528 19.8367 12.4591 19.7102 12.9991 19.7017ZM22.7191 18.0817C22.9469 18.0817 23.1578 18.0395 23.3519 17.9552C23.5459 17.8708 23.7147 17.7569 23.8581 17.6134C24.0016 17.47 24.1197 17.297 24.2125 17.0945C24.3053 16.892 24.3475 16.6811 24.3391 16.4617C24.3391 16.1833 24.2716 15.9217 24.1366 15.677C24.0016 15.4323 23.8159 15.2383 23.5797 15.0948L23.567 15.1075L23.5544 15.0948L23.567 15.0822C23.297 14.9219 23.0144 14.8417 22.7191 14.8417C22.4913 14.8417 22.2803 14.8839 22.0863 14.9683C21.8922 15.0527 21.7234 15.1666 21.58 15.31C21.4366 15.4534 21.3184 15.6264 21.2256 15.8289C21.1328 16.0314 21.0906 16.2423 21.0991 16.4617C21.0991 16.6895 21.1413 16.9005 21.2256 17.0945C21.31 17.2886 21.4239 17.4573 21.5673 17.6008C21.7108 17.7442 21.8838 17.8623 22.0863 17.9552C22.2887 18.048 22.4997 18.0902 22.7191 18.0817Z" fill="white"/>
</g>
<defs>
<clipPath id="clip0_6204_2770">
<rect width="25.92" height="25.92" fill="white" transform="translate(0.0390625 0.261719)"/>
</clipPath>
</defs>
</svg>
