<svg width="32" height="32" viewBox="0 0 32 32" fill="none" xmlns="http://www.w3.org/2000/svg">
<g id="Class">
<path id="Vector" d="M4.48047 6.125L4.48047 8.045L22.3512 8.045L22.3512 23.405L10.9789 23.405L10.9789 25.325L25.6005 25.325L25.6005 23.405L23.9759 23.405L23.9759 6.125L4.48047 6.125ZM7.73132 9.005C6.87035 9.00854 6.04546 9.41419 5.4365 10.1335C4.82754 10.8528 4.48389 11.8275 4.48047 12.845C4.48047 14.956 5.94587 16.685 7.73132 16.685C8.59187 16.681 9.41617 16.275 10.0245 15.5557C10.6329 14.8364 10.9759 13.862 10.9789 12.845C10.9789 10.7359 9.51515 9.005 7.73132 9.005ZM12.6035 9.965L12.6035 11.885L16.6651 11.885L16.6651 9.965L12.6035 9.965ZM18.2897 9.965L18.2897 11.885L20.7266 11.885L20.7266 9.965L18.2897 9.965ZM7.73132 10.925C8.63623 10.925 9.35431 11.7727 9.35431 12.845C9.35431 13.9202 8.63705 14.765 7.73132 14.765C6.82154 14.765 6.10508 13.9202 6.10508 12.845C6.10508 11.7727 6.82235 10.925 7.73132 10.925ZM12.6035 13.805L12.6035 15.725L20.7266 15.725L20.7266 13.805L12.6035 13.805ZM4.48047 17.645L4.48047 25.325L6.10508 25.325L6.10508 19.565L8.54201 19.565L8.54201 25.325L10.1666 25.325L10.1666 20.1967L11.8432 21.245C12.3184 21.5426 12.8895 21.5416 13.3639 21.245V21.2469L16.2313 19.4546L15.4734 17.7554L12.6052 19.5477L10.0903 17.9791C9.73928 17.7599 9.34837 17.6453 8.95141 17.645L4.48047 17.645Z" fill="white"/>
</g>
</svg>
