<svg width="32" height="32" viewBox="0 0 32 32" fill="none" xmlns="http://www.w3.org/2000/svg">
<g id="Class">
<path id="Vector" d="M4.48047 6.65234L4.48047 8.57234L22.3512 8.57234L22.3512 23.9323L10.9789 23.9323L10.9789 25.8523L25.6005 25.8523L25.6005 23.9323L23.9759 23.9323L23.9759 6.65234L4.48047 6.65234ZM7.73132 9.53234C6.87035 9.53588 6.04546 9.94153 5.4365 10.6608C4.82754 11.3802 4.48389 12.3548 4.48047 13.3723C4.48047 15.4834 5.94587 17.2123 7.73132 17.2123C8.59187 17.2083 9.41617 16.8024 10.0245 16.083C10.6329 15.3637 10.9759 14.3894 10.9789 13.3723C10.9789 11.2632 9.51515 9.53234 7.73132 9.53234ZM12.6035 10.4923L12.6035 12.4123L16.6651 12.4123L16.6651 10.4923L12.6035 10.4923ZM18.2897 10.4923L18.2897 12.4123L20.7266 12.4123L20.7266 10.4923L18.2897 10.4923ZM7.73132 11.4523C8.63623 11.4523 9.35431 12.3 9.35431 13.3723C9.35431 14.4475 8.63705 15.2923 7.73132 15.2923C6.82154 15.2923 6.10508 14.4475 6.10508 13.3723C6.10508 12.3 6.82235 11.4523 7.73132 11.4523ZM12.6035 14.3323L12.6035 16.2523L20.7266 16.2523L20.7266 14.3323L12.6035 14.3323ZM4.48047 18.1723L4.48047 25.8523L6.10508 25.8523L6.10508 20.0923L8.54201 20.0923L8.54201 25.8523L10.1666 25.8523L10.1666 20.724L11.8432 21.7723C12.3184 22.0699 12.8895 22.069 13.3639 21.7723V21.7743L16.2313 19.9819L15.4734 18.2827L12.6052 20.0751L10.0903 18.5064C9.73928 18.2873 9.34837 18.1726 8.95141 18.1723L4.48047 18.1723Z" fill="#8E8E8E"/>
</g>
</svg>
