<svg width="24" height="24" viewBox="0 0 24 24" fill="none" xmlns="http://www.w3.org/2000/svg">
<g id="mdi:near-field-communication-tap">
<path id="Vector" d="M12.0004 10.053C12.5096 10.053 12.998 10.2553 13.358 10.6153C13.7181 10.9754 13.9204 11.4638 13.9204 11.973C13.9204 12.4822 13.7181 12.9705 13.358 13.3306C12.998 13.6907 12.5096 13.893 12.0004 13.893C11.4912 13.893 11.0028 13.6907 10.6427 13.3306C10.2827 12.9705 10.0804 12.4822 10.0804 11.973C10.0804 11.4638 10.2827 10.9754 10.6427 10.6153C11.0028 10.2553 11.4912 10.053 12.0004 10.053ZM4.32039 4.29297L11.0404 4.29297C11.5496 4.29297 12.038 4.49525 12.398 4.85532C12.7581 5.21539 12.9604 5.70375 12.9604 6.21297L12.9604 9.09297L11.0404 9.09297L11.0404 6.21297L4.32039 6.21297L4.32039 11.013L6.24039 11.013L6.24039 9.09297L9.12039 11.973L6.24039 14.853L6.24039 12.933L4.32039 12.933C3.81117 12.933 3.32282 12.7307 2.96275 12.3706C2.60268 12.0105 2.40039 11.5222 2.40039 11.013L2.40039 6.21297C2.40039 5.70375 2.60268 5.21539 2.96275 4.85532C3.32282 4.49525 3.81117 4.29297 4.32039 4.29297ZM19.6804 19.653L12.9604 19.653C12.4512 19.653 11.9628 19.4507 11.6027 19.0906C11.2427 18.7305 11.0404 18.2422 11.0404 17.733L11.0404 14.853L12.9604 14.853L12.9604 17.733L19.6804 17.733L19.6804 12.933L17.7604 12.933L17.7604 14.853L14.8804 11.973L17.7604 9.09297L17.7604 11.013L19.6804 11.013C20.1896 11.013 20.678 11.2153 21.038 11.5753C21.3981 11.9354 21.6004 12.4238 21.6004 12.933L21.6004 17.733C21.6004 18.2422 21.3981 18.7305 21.038 19.0906C20.678 19.4507 20.1896 19.653 19.6804 19.653Z" fill="#8E8E8E"/>
</g>
</svg>
