<svg width="24" height="25" viewBox="0 0 24 25" fill="none" xmlns="http://www.w3.org/2000/svg">
<g id="mdi:near-field-communication-tap">
<path id="Vector" d="M12.0004 10.5803C12.5096 10.5803 12.998 10.7826 13.358 11.1427C13.7181 11.5027 13.9204 11.9911 13.9204 12.5003C13.9204 13.0095 13.7181 13.4979 13.358 13.858C12.998 14.218 12.5096 14.4203 12.0004 14.4203C11.4912 14.4203 11.0028 14.218 10.6427 13.858C10.2827 13.4979 10.0804 13.0095 10.0804 12.5003C10.0804 11.9911 10.2827 11.5027 10.6427 11.1427C11.0028 10.7826 11.4912 10.5803 12.0004 10.5803ZM4.32039 4.82031L11.0404 4.82031C11.5496 4.82031 12.038 5.0226 12.398 5.38267C12.7581 5.74274 12.9604 6.2311 12.9604 6.74031L12.9604 9.62031L11.0404 9.62031L11.0404 6.74031L4.32039 6.74031L4.32039 11.5403L6.24039 11.5403L6.24039 9.62031L9.12039 12.5003L6.24039 15.3803L6.24039 13.4603L4.32039 13.4603C3.81117 13.4603 3.32282 13.258 2.96275 12.898C2.60268 12.5379 2.40039 12.0495 2.40039 11.5403L2.40039 6.74031C2.40039 6.2311 2.60268 5.74274 2.96275 5.38267C3.32282 5.0226 3.81117 4.82031 4.32039 4.82031ZM19.6804 20.1803L12.9604 20.1803C12.4512 20.1803 11.9628 19.978 11.6027 19.618C11.2427 19.2579 11.0404 18.7695 11.0404 18.2603L11.0404 15.3803L12.9604 15.3803L12.9604 18.2603L19.6804 18.2603L19.6804 13.4603L17.7604 13.4603L17.7604 15.3803L14.8804 12.5003L17.7604 9.62031L17.7604 11.5403L19.6804 11.5403C20.1896 11.5403 20.678 11.7426 21.038 12.1027C21.3981 12.4627 21.6004 12.9511 21.6004 13.4603L21.6004 18.2603C21.6004 18.7695 21.3981 19.2579 21.038 19.618C20.678 19.978 20.1896 20.1803 19.6804 20.1803Z" fill="white"/>
</g>
</svg>
