<svg width="24" height="25" viewBox="0 0 24 25" fill="none" xmlns="http://www.w3.org/2000/svg">
<g id="fluent-mdl2:join-online-meeting" clip-path="url(#clip0_6204_3454)">
<g id="Vector">
<mask id="path-1-inside-1_6204_3454" fill="white">
<path d="M10.7578 22.5156C10.6797 22.8125 10.6211 23.1133 10.582 23.418C10.543 23.7227 10.5156 24.0352 10.5 24.3555C9.5 24.2383 8.54687 24.0039 7.64062 23.6523C6.73437 23.3008 5.89453 22.8516 5.12109 22.3047C4.34766 21.7578 3.64453 21.125 3.01172 20.4063C2.37891 19.6875 1.83984 18.9063 1.39453 18.0625C0.949219 17.2188 0.605469 16.3281 0.363281 15.3906C0.121094 14.4531 0 13.4805 0 12.4727C0 11.3711 0.140625 10.3086 0.421875 9.28516C0.703125 8.26172 1.10547 7.30469 1.62891 6.41406C2.15234 5.52344 2.77734 4.71484 3.50391 3.98828C4.23047 3.26172 5.04297 2.63672 5.94141 2.11328C6.83984 1.58984 7.79297 1.1875 8.80078 0.90625C9.80859 0.625 10.875 0.480469 12 0.472656C13.1016 0.472656 14.1602 0.613281 15.1758 0.894531C16.1914 1.17578 17.1484 1.58203 18.0469 2.11328C18.9453 2.64453 19.7539 3.26953 20.4727 3.98828C21.1914 4.70703 21.8203 5.51953 22.3594 6.42578C22.8984 7.33203 23.3008 8.28516 23.5664 9.28516C23.832 10.2852 23.9766 11.3477 24 12.4727L23.168 12.4727C23.0586 12.293 22.9453 12.1172 22.8281 11.9453C22.7109 11.7734 22.5742 11.6094 22.418 11.4531C22.3711 10.7734 22.25 10.1133 22.0547 9.47266L7.69922 9.47266C7.63672 9.97266 7.58984 10.4688 7.55859 10.9609C7.52734 11.4531 7.50781 11.957 7.5 12.4727C7.5 12.9805 7.51562 13.4805 7.54687 13.9727C7.57812 14.4648 7.62891 14.9648 7.69922 15.4727L12 15.4727C12 15.7227 12.0195 15.9727 12.0586 16.2227C12.0977 16.4727 12.1484 16.7227 12.2109 16.9727L7.95703 16.9727C8.05078 17.418 8.17578 17.9063 8.33203 18.4375C8.48828 18.9688 8.68359 19.4883 8.91797 19.9961C9.15234 20.5039 9.42187 20.9805 9.72656 21.4258C10.0312 21.8711 10.375 22.2344 10.7578 22.5156ZM21.4805 7.97266C21.1758 7.33984 20.8164 6.74609 20.4023 6.19141C19.9883 5.63672 19.5195 5.12891 18.9961 4.66797C18.4727 4.20703 17.918 3.79688 17.332 3.4375C16.7461 3.07813 16.1133 2.78516 15.4336 2.55859C15.7148 2.94922 15.9648 3.36328 16.1836 3.80078C16.4023 4.23828 16.6016 4.6875 16.7812 5.14844C16.9609 5.60938 17.1133 6.07813 17.2383 6.55469C17.3633 7.03125 17.4727 7.50391 17.5664 7.97266L21.4805 7.97266ZM12 1.97266C11.6094 1.97266 11.25 2.07813 10.9219 2.28906C10.5937 2.5 10.2891 2.77734 10.0078 3.12109C9.72656 3.46484 9.47656 3.85156 9.25781 4.28125C9.03906 4.71094 8.83984 5.15234 8.66016 5.60547C8.48047 6.05859 8.33594 6.48828 8.22656 6.89453C8.11719 7.30078 8.02734 7.66016 7.95703 7.97266L16.043 7.97266C15.9805 7.66797 15.8906 7.30859 15.7734 6.89453C15.6562 6.48047 15.5117 6.05078 15.3398 5.60547C15.168 5.16016 14.9727 4.72266 14.7539 4.29297C14.5352 3.86328 14.2852 3.47266 14.0039 3.12109C13.7227 2.76953 13.4141 2.49219 13.0781 2.28906C12.7422 2.08594 12.3828 1.98047 12 1.97266ZM8.57812 2.54688C7.91406 2.77344 7.28125 3.0625 6.67969 3.41406C6.07812 3.76563 5.51953 4.17578 5.00391 4.64453C4.48828 5.11328 4.01953 5.625 3.59766 6.17969C3.17578 6.73438 2.81641 7.33203 2.51953 7.97266L6.43359 7.97266C6.51953 7.54297 6.625 7.08594 6.75 6.60156C6.875 6.11719 7.03125 5.63281 7.21875 5.14844C7.40625 4.66406 7.60937 4.19922 7.82812 3.75391C8.04687 3.30859 8.29687 2.90625 8.57812 2.54688ZM1.5 12.4727C1.5 13.5117 1.64453 14.5117 1.93359 15.4727L6.1875 15.4727C6.125 14.9727 6.07812 14.4766 6.04687 13.9844C6.01562 13.4922 6 12.9883 6 12.4727C6 11.9648 6.01562 11.4648 6.04687 10.9727C6.07812 10.4805 6.125 9.98047 6.1875 9.47266L1.93359 9.47266C1.64453 10.4336 1.5 11.4336 1.5 12.4727ZM2.49609 16.9727C2.80078 17.6055 3.16016 18.1992 3.57422 18.7539C3.98828 19.3086 4.45703 19.8203 4.98047 20.2891C5.50391 20.7578 6.06641 21.1641 6.66797 21.5078C7.26953 21.8516 7.90234 22.1445 8.56641 22.3867C8.28516 21.9961 8.03516 21.582 7.81641 21.1445C7.59766 20.707 7.39844 20.2578 7.21875 19.7969C7.03906 19.3359 6.88672 18.8672 6.76172 18.3906C6.63672 17.9141 6.52344 17.4414 6.42187 16.9727L2.49609 16.9727ZM20.6484 19.0938C21.1562 19.3516 21.6172 19.668 22.0312 20.043C22.4453 20.418 22.7969 20.8398 23.0859 21.3086C23.375 21.7773 23.6016 22.2773 23.7656 22.8086C23.9297 23.3398 24.0078 23.8945 24 24.4727L22.5 24.4727C22.5 23.8555 22.3828 23.2734 22.1484 22.7266C21.9141 22.1797 21.5937 21.7031 21.1875 21.2969C20.7812 20.8906 20.3008 20.5664 19.7461 20.3242C19.1914 20.082 18.6094 19.9648 18 19.9727C17.375 19.9727 16.793 20.0898 16.2539 20.3242C15.7148 20.5586 15.2383 20.8789 14.8242 21.2852C14.4102 21.6914 14.0859 22.1719 13.8516 22.7266C13.6172 23.2813 13.5 23.8633 13.5 24.4727L12 24.4727C12 23.9023 12.0781 23.3516 12.2344 22.8203C12.3906 22.2891 12.6133 21.7852 12.9023 21.3086C13.1914 20.832 13.543 20.4102 13.957 20.043C14.3711 19.6758 14.832 19.3594 15.3398 19.0938C14.7539 18.6719 14.3008 18.1445 13.9805 17.5117C13.6602 16.8789 13.5 16.1992 13.5 15.4727C13.5 14.8555 13.6172 14.2734 13.8516 13.7266C14.0859 13.1797 14.4062 12.7031 14.8125 12.2969C15.2187 11.8906 15.6953 11.5664 16.2422 11.3242C16.7891 11.082 17.375 10.9648 18 10.9727C18.6172 10.9727 19.1992 11.0898 19.7461 11.3242C20.293 11.5586 20.7695 11.8789 21.1758 12.2852C21.582 12.6914 21.9062 13.1719 22.1484 13.7266C22.3906 14.2813 22.5078 14.8633 22.5 15.4727C22.5 16.1914 22.3398 16.8672 22.0195 17.5C21.6992 18.1328 21.2422 18.6641 20.6484 19.0938ZM18 18.4727C18.4141 18.4727 18.8008 18.3945 19.1602 18.2383C19.5195 18.082 19.8398 17.8672 20.1211 17.5938C20.4023 17.3203 20.6172 17.0039 20.7656 16.6445C20.9141 16.2852 20.9922 15.8945 21 15.4727C21 15.0586 20.9219 14.6719 20.7656 14.3125C20.6094 13.9531 20.3945 13.6328 20.1211 13.3516C19.8477 13.0703 19.5312 12.8555 19.1719 12.707C18.8125 12.5586 18.4219 12.4805 18 12.4727C17.5859 12.4727 17.1992 12.5508 16.8398 12.707C16.4805 12.8633 16.1602 13.0781 15.8789 13.3516C15.5977 13.625 15.3828 13.9414 15.2344 14.3008C15.0859 14.6602 15.0078 15.0508 15 15.4727C15 15.8867 15.0781 16.2734 15.2344 16.6328C15.3906 16.9922 15.6055 17.3125 15.8789 17.5938C16.1523 17.875 16.4687 18.0898 16.8281 18.2383C17.1875 18.3867 17.5781 18.4648 18 18.4727Z"/>
</mask>
<path d="M10.7578 22.5156C10.6797 22.8125 10.6211 23.1133 10.582 23.418C10.543 23.7227 10.5156 24.0352 10.5 24.3555C9.5 24.2383 8.54687 24.0039 7.64062 23.6523C6.73437 23.3008 5.89453 22.8516 5.12109 22.3047C4.34766 21.7578 3.64453 21.125 3.01172 20.4063C2.37891 19.6875 1.83984 18.9063 1.39453 18.0625C0.949219 17.2188 0.605469 16.3281 0.363281 15.3906C0.121094 14.4531 0 13.4805 0 12.4727C0 11.3711 0.140625 10.3086 0.421875 9.28516C0.703125 8.26172 1.10547 7.30469 1.62891 6.41406C2.15234 5.52344 2.77734 4.71484 3.50391 3.98828C4.23047 3.26172 5.04297 2.63672 5.94141 2.11328C6.83984 1.58984 7.79297 1.1875 8.80078 0.90625C9.80859 0.625 10.875 0.480469 12 0.472656C13.1016 0.472656 14.1602 0.613281 15.1758 0.894531C16.1914 1.17578 17.1484 1.58203 18.0469 2.11328C18.9453 2.64453 19.7539 3.26953 20.4727 3.98828C21.1914 4.70703 21.8203 5.51953 22.3594 6.42578C22.8984 7.33203 23.3008 8.28516 23.5664 9.28516C23.832 10.2852 23.9766 11.3477 24 12.4727L23.168 12.4727C23.0586 12.293 22.9453 12.1172 22.8281 11.9453C22.7109 11.7734 22.5742 11.6094 22.418 11.4531C22.3711 10.7734 22.25 10.1133 22.0547 9.47266L7.69922 9.47266C7.63672 9.97266 7.58984 10.4688 7.55859 10.9609C7.52734 11.4531 7.50781 11.957 7.5 12.4727C7.5 12.9805 7.51562 13.4805 7.54687 13.9727C7.57812 14.4648 7.62891 14.9648 7.69922 15.4727L12 15.4727C12 15.7227 12.0195 15.9727 12.0586 16.2227C12.0977 16.4727 12.1484 16.7227 12.2109 16.9727L7.95703 16.9727C8.05078 17.418 8.17578 17.9063 8.33203 18.4375C8.48828 18.9688 8.68359 19.4883 8.91797 19.9961C9.15234 20.5039 9.42187 20.9805 9.72656 21.4258C10.0312 21.8711 10.375 22.2344 10.7578 22.5156ZM21.4805 7.97266C21.1758 7.33984 20.8164 6.74609 20.4023 6.19141C19.9883 5.63672 19.5195 5.12891 18.9961 4.66797C18.4727 4.20703 17.918 3.79688 17.332 3.4375C16.7461 3.07813 16.1133 2.78516 15.4336 2.55859C15.7148 2.94922 15.9648 3.36328 16.1836 3.80078C16.4023 4.23828 16.6016 4.6875 16.7812 5.14844C16.9609 5.60938 17.1133 6.07813 17.2383 6.55469C17.3633 7.03125 17.4727 7.50391 17.5664 7.97266L21.4805 7.97266ZM12 1.97266C11.6094 1.97266 11.25 2.07813 10.9219 2.28906C10.5937 2.5 10.2891 2.77734 10.0078 3.12109C9.72656 3.46484 9.47656 3.85156 9.25781 4.28125C9.03906 4.71094 8.83984 5.15234 8.66016 5.60547C8.48047 6.05859 8.33594 6.48828 8.22656 6.89453C8.11719 7.30078 8.02734 7.66016 7.95703 7.97266L16.043 7.97266C15.9805 7.66797 15.8906 7.30859 15.7734 6.89453C15.6562 6.48047 15.5117 6.05078 15.3398 5.60547C15.168 5.16016 14.9727 4.72266 14.7539 4.29297C14.5352 3.86328 14.2852 3.47266 14.0039 3.12109C13.7227 2.76953 13.4141 2.49219 13.0781 2.28906C12.7422 2.08594 12.3828 1.98047 12 1.97266ZM8.57812 2.54688C7.91406 2.77344 7.28125 3.0625 6.67969 3.41406C6.07812 3.76563 5.51953 4.17578 5.00391 4.64453C4.48828 5.11328 4.01953 5.625 3.59766 6.17969C3.17578 6.73438 2.81641 7.33203 2.51953 7.97266L6.43359 7.97266C6.51953 7.54297 6.625 7.08594 6.75 6.60156C6.875 6.11719 7.03125 5.63281 7.21875 5.14844C7.40625 4.66406 7.60937 4.19922 7.82812 3.75391C8.04687 3.30859 8.29687 2.90625 8.57812 2.54688ZM1.5 12.4727C1.5 13.5117 1.64453 14.5117 1.93359 15.4727L6.1875 15.4727C6.125 14.9727 6.07812 14.4766 6.04687 13.9844C6.01562 13.4922 6 12.9883 6 12.4727C6 11.9648 6.01562 11.4648 6.04687 10.9727C6.07812 10.4805 6.125 9.98047 6.1875 9.47266L1.93359 9.47266C1.64453 10.4336 1.5 11.4336 1.5 12.4727ZM2.49609 16.9727C2.80078 17.6055 3.16016 18.1992 3.57422 18.7539C3.98828 19.3086 4.45703 19.8203 4.98047 20.2891C5.50391 20.7578 6.06641 21.1641 6.66797 21.5078C7.26953 21.8516 7.90234 22.1445 8.56641 22.3867C8.28516 21.9961 8.03516 21.582 7.81641 21.1445C7.59766 20.707 7.39844 20.2578 7.21875 19.7969C7.03906 19.3359 6.88672 18.8672 6.76172 18.3906C6.63672 17.9141 6.52344 17.4414 6.42187 16.9727L2.49609 16.9727ZM20.6484 19.0938C21.1562 19.3516 21.6172 19.668 22.0312 20.043C22.4453 20.418 22.7969 20.8398 23.0859 21.3086C23.375 21.7773 23.6016 22.2773 23.7656 22.8086C23.9297 23.3398 24.0078 23.8945 24 24.4727L22.5 24.4727C22.5 23.8555 22.3828 23.2734 22.1484 22.7266C21.9141 22.1797 21.5937 21.7031 21.1875 21.2969C20.7812 20.8906 20.3008 20.5664 19.7461 20.3242C19.1914 20.082 18.6094 19.9648 18 19.9727C17.375 19.9727 16.793 20.0898 16.2539 20.3242C15.7148 20.5586 15.2383 20.8789 14.8242 21.2852C14.4102 21.6914 14.0859 22.1719 13.8516 22.7266C13.6172 23.2813 13.5 23.8633 13.5 24.4727L12 24.4727C12 23.9023 12.0781 23.3516 12.2344 22.8203C12.3906 22.2891 12.6133 21.7852 12.9023 21.3086C13.1914 20.832 13.543 20.4102 13.957 20.043C14.3711 19.6758 14.832 19.3594 15.3398 19.0938C14.7539 18.6719 14.3008 18.1445 13.9805 17.5117C13.6602 16.8789 13.5 16.1992 13.5 15.4727C13.5 14.8555 13.6172 14.2734 13.8516 13.7266C14.0859 13.1797 14.4062 12.7031 14.8125 12.2969C15.2187 11.8906 15.6953 11.5664 16.2422 11.3242C16.7891 11.082 17.375 10.9648 18 10.9727C18.6172 10.9727 19.1992 11.0898 19.7461 11.3242C20.293 11.5586 20.7695 11.8789 21.1758 12.2852C21.582 12.6914 21.9062 13.1719 22.1484 13.7266C22.3906 14.2813 22.5078 14.8633 22.5 15.4727C22.5 16.1914 22.3398 16.8672 22.0195 17.5C21.6992 18.1328 21.2422 18.6641 20.6484 19.0938ZM18 18.4727C18.4141 18.4727 18.8008 18.3945 19.1602 18.2383C19.5195 18.082 19.8398 17.8672 20.1211 17.5938C20.4023 17.3203 20.6172 17.0039 20.7656 16.6445C20.9141 16.2852 20.9922 15.8945 21 15.4727C21 15.0586 20.9219 14.6719 20.7656 14.3125C20.6094 13.9531 20.3945 13.6328 20.1211 13.3516C19.8477 13.0703 19.5312 12.8555 19.1719 12.707C18.8125 12.5586 18.4219 12.4805 18 12.4727C17.5859 12.4727 17.1992 12.5508 16.8398 12.707C16.4805 12.8633 16.1602 13.0781 15.8789 13.3516C15.5977 13.625 15.3828 13.9414 15.2344 14.3008C15.0859 14.6602 15.0078 15.0508 15 15.4727C15 15.8867 15.0781 16.2734 15.2344 16.6328C15.3906 16.9922 15.6055 17.3125 15.8789 17.5938C16.1523 17.875 16.4687 18.0898 16.8281 18.2383C17.1875 18.3867 17.5781 18.4648 18 18.4727Z" fill="white" stroke="white" stroke-width="1.92" mask="url(#path-1-inside-1_6204_3454)"/>
</g>
</g>
<defs>
<clipPath id="clip0_6204_3454">
<rect width="24" height="24" fill="white" transform="translate(0 0.472656)"/>
</clipPath>
</defs>
</svg>
