<svg width="22" height="23" viewBox="0 0 22 23" fill="none" xmlns="http://www.w3.org/2000/svg">
<path id="Vector" fill-rule="evenodd" clip-rule="evenodd" d="M5.99912 0.222656C4.93911 0.227131 3.9238 0.6502 3.17425 1.39974C2.42471 2.14929 2.00164 3.1646 1.99717 4.22461C1.99717 5.16459 2.34316 6.02158 2.89416 6.70657C1.19118 7.50656 -0.00280762 9.22554 -0.00280762 11.2225C0.026192 12.5265 1.96817 12.5265 1.99717 11.2225C1.99409 10.8273 2.0698 10.4354 2.21987 10.0698C2.36995 9.70412 2.59138 9.37204 2.87123 9.09294C3.15108 8.81383 3.48374 8.59329 3.84978 8.44419C4.21583 8.29509 4.60791 8.22042 5.00313 8.22456H7.0031C7.39779 8.22068 7.78928 8.29559 8.15465 8.4449C8.52002 8.59421 8.85192 8.81493 9.13093 9.09412C9.40993 9.37331 9.63042 9.70536 9.77949 10.0708C9.92856 10.4363 10.0032 10.8278 9.99907 11.2225C9.99907 12.5575 12.001 12.5575 12.001 11.2225C11.9969 10.8278 12.0715 10.4363 12.2206 10.0708C12.3697 9.70536 12.5902 9.37331 12.8692 9.09412C13.1482 8.81493 13.4801 8.59421 13.8455 8.4449C14.2108 8.29559 14.6023 8.22068 14.997 8.22456H16.997C17.3922 8.22042 17.7843 8.29509 18.1503 8.44419C18.5164 8.59329 18.849 8.81383 19.1289 9.09294C19.4087 9.37204 19.6302 9.70412 19.7802 10.0698C19.9303 10.4354 20.006 10.8273 20.0029 11.2225C20.0029 12.5565 22.0029 12.5565 22.0029 11.2225C22.0029 9.22554 20.8089 7.50556 19.106 6.70657C19.6569 6.02158 20.0029 5.16559 20.0029 4.22461C19.9985 3.1646 19.5754 2.14929 18.8259 1.39974C18.0763 0.6502 17.061 0.227131 16.001 0.222656C13.804 0.222656 12.001 2.02763 12.001 4.22461C12.001 5.16459 12.344 6.01958 12.894 6.70457C12.14 7.05857 11.494 7.59456 11.0011 8.25556C10.5069 7.59054 9.85588 7.05807 9.10608 6.70557C9.65607 6.01958 9.99907 5.16459 9.99907 4.22461C9.99512 3.16478 9.57249 2.14947 8.82327 1.39987C8.07404 0.650268 7.05894 0.227134 5.99912 0.222656ZM5.99912 2.22263C7.1151 2.22263 7.99909 3.10862 7.99909 4.22461C7.99909 5.34059 7.1151 6.22458 5.99912 6.22458C4.88313 6.22458 3.99914 5.34059 3.99914 4.22461C3.99914 3.10862 4.88313 2.22263 5.99912 2.22263ZM16.001 2.22263C17.117 2.22263 18.003 3.10862 18.003 4.22461C18.003 5.34059 17.117 6.22458 16.001 6.22458C14.885 6.22458 14.001 5.34059 14.001 4.22461C14.001 3.10862 14.885 2.22263 16.001 2.22263ZM5.99912 10.2245C4.93911 10.229 3.9238 10.6521 3.17425 11.4016C2.42471 12.1512 2.00164 13.1665 1.99717 14.2265C1.99717 15.1675 2.34216 16.0245 2.89416 16.7104C1.19118 17.5104 -0.00280762 19.2274 -0.00280762 21.2244C0.026192 22.5284 1.96817 22.5284 1.99717 21.2244C1.99409 20.8292 2.0698 20.4373 2.21987 20.0716C2.36995 19.706 2.59138 19.3739 2.87123 19.0948C3.15108 18.8157 3.48374 18.5952 3.84978 18.4461C4.21583 18.297 4.60791 18.2223 5.00313 18.2264H7.0031C7.39779 18.2226 7.78928 18.2975 8.15465 18.4468C8.52002 18.5961 8.85192 18.8168 9.13093 19.096C9.40993 19.3752 9.63042 19.7072 9.77949 20.0727C9.92856 20.4382 10.0032 20.8297 9.99907 21.2244C9.99907 22.5594 12.001 22.5594 12.001 21.2244C11.9969 20.8297 12.0715 20.4382 12.2206 20.0727C12.3697 19.7072 12.5902 19.3752 12.8692 19.096C13.1482 18.8168 13.4801 18.5961 13.8455 18.4468C14.2108 18.2975 14.6023 18.2226 14.997 18.2264H16.997C17.3922 18.2223 17.7843 18.297 18.1503 18.4461C18.5164 18.5952 18.849 18.8157 19.1289 19.0948C19.4087 19.3739 19.6302 19.706 19.7802 20.0716C19.9303 20.4373 20.006 20.8292 20.0029 21.2244C20.0029 22.5584 22.0029 22.5584 22.0029 21.2244C22.0029 19.2274 20.8089 17.5094 19.106 16.7104C19.6807 16.0097 19.9974 15.1328 20.0029 14.2265C19.9985 13.1665 19.5754 12.1512 18.8259 11.4016C18.0763 10.6521 17.061 10.229 16.001 10.2245C13.804 10.2245 12.001 12.0295 12.001 14.2265C12.001 15.1665 12.343 16.0235 12.894 16.7084C12.14 17.0624 11.494 17.5964 11.0011 18.2584C10.507 17.5933 9.85597 17.0608 9.10608 16.7084C9.65607 16.0235 9.99907 15.1665 9.99907 14.2265C9.99512 13.1667 9.57249 12.1513 8.82327 11.4017C8.07404 10.6521 7.05894 10.229 5.99912 10.2245ZM5.99912 12.2265C7.1151 12.2265 7.99909 13.1105 7.99909 14.2265C7.99909 15.3425 7.1151 16.2265 5.99912 16.2265C4.88313 16.2265 3.99914 15.3425 3.99914 14.2265C3.99914 13.1105 4.88313 12.2265 5.99912 12.2265ZM16.001 12.2265C17.117 12.2265 18.003 13.1105 18.003 14.2265C18.003 15.3425 17.117 16.2265 16.001 16.2265C14.885 16.2265 14.001 15.3425 14.001 14.2265C14.001 13.1105 14.885 12.2265 16.001 12.2265Z" fill="#8E8E8E"/>
</svg>
