<svg width="17" height="18" viewBox="0 0 17 18" fill="none" xmlns="http://www.w3.org/2000/svg">
<g id="fluent:live-20-filled">
<path id="Vector" d="M4.64404 4.51328C4.58729 4.45538 4.51969 4.40923 4.4451 4.37746C4.37051 4.3457 4.29039 4.32894 4.20933 4.32815C4.12826 4.32736 4.04783 4.34256 3.97263 4.37286C3.89744 4.40317 3.82895 4.448 3.77109 4.50478C3.11655 5.15552 2.59734 5.92943 2.24341 6.78186C1.88949 7.63428 1.70785 8.54835 1.70899 9.47133C1.70793 10.4297 1.90386 11.3781 2.28461 12.2576C2.66537 13.1371 3.22283 13.929 3.92239 14.5841C4.04013 14.6929 4.19566 14.7516 4.35595 14.7476C4.51624 14.7436 4.66868 14.6774 4.78089 14.5628C5.04949 14.2942 5.01634 13.8667 4.75794 13.6193C4.19651 13.0843 3.74975 12.4407 3.44479 11.7276C3.13983 11.0145 2.98306 10.2469 2.98399 9.47133C2.98399 7.90223 3.61384 6.47933 4.63554 5.44403C4.88204 5.19328 4.90754 4.77678 4.64404 4.51328ZM6.14089 6.01183C6.02894 5.89664 5.8759 5.83053 5.7153 5.82798C5.5547 5.82543 5.39963 5.88666 5.28409 5.99823C4.8242 6.45209 4.45916 6.99288 4.21021 7.58913C3.96126 8.18539 3.83337 8.82519 3.83399 9.47133C3.83299 10.1545 3.97574 10.8303 4.25295 11.4547C4.53016 12.0791 4.93564 12.6382 5.44304 13.0957C5.5597 13.1988 5.71155 13.253 5.86711 13.2472C6.02267 13.2413 6.17001 13.1758 6.27859 13.0643C6.55739 12.7855 6.50554 12.3469 6.24374 12.1004C5.88488 11.763 5.59902 11.3557 5.40384 10.9035C5.20866 10.4513 5.10831 9.96385 5.10899 9.47133C5.10899 8.49383 5.49744 7.60643 6.12899 6.95533C6.37209 6.70543 6.41204 6.28213 6.14089 6.01183ZM10.8771 6.01183C10.989 5.89664 11.1421 5.83053 11.3027 5.82798C11.4633 5.82543 11.6183 5.88666 11.7339 5.99823C12.1938 6.45209 12.5588 6.99288 12.8078 7.58913C13.0567 8.18539 13.1846 8.82519 13.184 9.47133C13.185 10.1545 13.0422 10.8303 12.765 11.4547C12.4878 12.0791 12.0823 12.6382 11.5749 13.0957C11.4583 13.1988 11.3064 13.253 11.1509 13.2472C10.9953 13.2413 10.848 13.1758 10.7394 13.0643C10.4606 12.7855 10.5124 12.3469 10.7742 12.1004C11.1331 11.763 11.419 11.3557 11.6141 10.9035C11.8093 10.4513 11.9097 9.96385 11.909 9.47133C11.909 8.49383 11.5205 7.60643 10.889 6.95533C10.6459 6.70543 10.6059 6.28213 10.8771 6.01183ZM12.3739 4.51413C12.4307 4.45623 12.4983 4.41008 12.5729 4.37831C12.6475 4.34655 12.7276 4.32979 12.8087 4.329C12.8897 4.32822 12.9702 4.34341 13.0453 4.37371C13.1205 4.40402 13.189 4.44885 13.2469 4.50563C13.9013 5.15627 14.4205 5.93004 14.7744 6.78231C15.1283 7.63459 15.31 8.54849 15.309 9.47133C15.3101 10.4297 15.1141 11.3781 14.7334 12.2576C14.3526 13.1371 13.7952 13.929 13.0956 14.5841C12.9778 14.6929 12.8223 14.7516 12.662 14.7476C12.5017 14.7436 12.3493 14.6774 12.2371 14.5628C11.9685 14.2942 12.0016 13.8667 12.2609 13.6193C12.8222 13.0842 13.2688 12.4406 13.5736 11.7275C13.8784 11.0144 14.035 10.2468 14.034 9.47133C14.034 7.90223 13.4041 6.47933 12.3824 5.44403C12.1359 5.19328 12.1104 4.77678 12.3739 4.51328L12.3739 4.51413ZM8.50899 8.19633C8.17084 8.19633 7.84654 8.33066 7.60743 8.56977C7.36832 8.80888 7.23399 9.13318 7.23399 9.47133C7.23399 9.80948 7.36832 10.1338 7.60743 10.3729C7.84654 10.612 8.17084 10.7463 8.50899 10.7463C8.84714 10.7463 9.17144 10.612 9.41055 10.3729C9.64966 10.1338 9.78399 9.80948 9.78399 9.47133C9.78399 9.13318 9.64966 8.80888 9.41055 8.56977C9.17144 8.33066 8.84714 8.19633 8.50899 8.19633Z" fill="white"/>
</g>
</svg>
