<svg width="24" height="25" viewBox="0 0 24 25" fill="none" xmlns="http://www.w3.org/2000/svg">
<g id="mobile" clip-path="url(#clip0_5574_22441)">
<path id="Vector" d="M17.3025 0.722656C18.0855 0.722656 18.75 1.33016 18.75 2.10116V23.3442C18.75 24.1152 18.0855 24.7227 17.3025 24.7227H5.9475C5.1645 24.7227 4.5 24.1152 4.5 23.3442V2.10116C4.5 1.33016 5.1645 0.722656 5.9475 0.722656H17.3025ZM17.3025 1.47266H5.9475C5.541 1.47266 5.25 1.76066 5.25 2.10116V23.3442C5.25 23.6854 5.541 23.9727 5.9475 23.9727H17.3025C17.709 23.9727 18 23.6854 18 23.3442V2.10116C18 1.76066 17.709 1.47266 17.3025 1.47266ZM10.6613 2.22116L13.3417 2.22866L13.3387 2.97866L10.6583 2.97116L10.6613 2.22116ZM16.9012 2.23016C16.996 2.23674 17.0846 2.27863 17.1493 2.3474C17.2141 2.41616 17.25 2.50667 17.25 2.60066C17.2501 2.64947 17.2405 2.69783 17.2217 2.74296C17.2029 2.78809 17.1753 2.8291 17.1404 2.86365C17.1056 2.89821 17.0642 2.92562 17.0187 2.94432C16.9731 2.96303 16.9243 2.97266 16.875 2.97266C16.8257 2.97266 16.7769 2.96303 16.7313 2.94432C16.6858 2.92562 16.6444 2.89821 16.6096 2.86365C16.5747 2.8291 16.5471 2.78809 16.5283 2.74296C16.5095 2.69783 16.4999 2.64947 16.5 2.60066C16.5002 2.50232 16.5398 2.40809 16.6101 2.33863C16.6804 2.26917 16.7757 2.23016 16.875 2.23016C16.8837 2.22985 16.8925 2.22985 16.9012 2.23016ZM17.25 3.72266V20.2227H6V3.72266H17.25ZM16.5 4.47266H6.75V19.4727H16.5V4.47266ZM11.625 7.47266C12.436 7.47282 13.229 7.71209 13.9047 8.16055C14.5805 8.60902 15.109 9.24676 15.4242 9.99402C15.7394 10.7413 15.8273 11.5649 15.6769 12.3618C15.5265 13.1588 15.1444 13.8937 14.5785 14.4747L14.5837 14.4837L14.376 14.6652C14.1848 14.8362 13.9785 14.9899 13.758 15.1234L13.7445 15.1324C13.557 15.2449 13.3597 15.3424 13.1542 15.4249C13.1062 15.4452 13.0567 15.4617 13.008 15.4797C12.843 15.5382 12.6758 15.5884 12.5025 15.6259C12.4005 15.6484 12.297 15.6634 12.192 15.6784C12.0817 15.6934 11.9708 15.7047 11.8583 15.7107C11.7795 15.7159 11.7045 15.7332 11.625 15.7332C11.5455 15.7332 11.4705 15.7159 11.3925 15.7107C11.28 15.7047 11.1675 15.6942 11.058 15.6784C10.953 15.6634 10.8495 15.6484 10.7475 15.6259C10.5743 15.5884 10.4062 15.5382 10.242 15.4797C10.1932 15.4617 10.1445 15.4452 10.0958 15.4257C9.89025 15.3432 9.693 15.2457 9.5055 15.1324L9.492 15.1234C9.27225 14.9899 9.066 14.8377 8.8755 14.6659L8.66775 14.4852L8.673 14.4762C8.10668 13.8954 7.72422 13.1605 7.57346 12.3634C7.4227 11.5663 7.51034 10.7425 7.82541 9.99501C8.14049 9.2475 8.66901 8.60951 9.34484 8.16086C10.0207 7.71221 10.8138 7.47282 11.625 7.47266ZM11.625 8.22266C11.1812 8.22067 10.7415 8.30661 10.3311 8.47552C9.92073 8.64442 9.54788 8.89295 9.23409 9.20674C8.92029 9.52054 8.67177 9.89338 8.50286 10.3038C8.33396 10.7141 8.24801 11.1539 8.25 11.5977C8.25 12.4752 8.5875 13.2604 9.1275 13.8582C9.47133 13.4756 9.89754 13.176 10.374 12.9822C10.1786 12.8081 10.022 12.5949 9.91453 12.3564C9.80701 12.1178 9.75095 11.8593 9.75 11.5977C9.75 10.5657 10.593 9.72266 11.625 9.72266C12.1219 9.72384 12.5981 9.92177 12.9495 10.2731C13.3009 10.6245 13.4988 11.1007 13.5 11.5977C13.5 12.1482 13.2555 12.6387 12.876 12.9822C13.3518 13.1773 13.7763 13.4793 14.1165 13.8649C14.6846 13.2465 14.9998 12.4374 15 11.5977C15.002 11.1539 14.916 10.7141 14.7471 10.3038C14.5782 9.89338 14.3297 9.52054 14.0159 9.20674C13.7021 8.89295 13.3293 8.64442 12.9189 8.47552C12.5085 8.30661 12.0688 8.22067 11.625 8.22266ZM11.625 10.4727C10.995 10.4727 10.5 10.9677 10.5 11.5977C10.5 12.2277 10.995 12.7227 11.625 12.7227C12.255 12.7227 12.75 12.2277 12.75 11.5977C12.75 10.9677 12.255 10.4727 11.625 10.4727ZM11.79 13.4832C11.0062 13.4359 10.305 13.8057 9.78075 14.3637C10.1594 14.6259 10.5852 14.8123 11.0347 14.9127C11.2267 14.9464 11.4225 14.9727 11.625 14.9727C11.826 14.9727 12.0203 14.9472 12.2108 14.9142C12.6485 14.8163 13.064 14.6369 13.4355 14.3854C13.1145 14.0404 12.7808 13.6917 12.3015 13.5634H12.3C12.126 13.5162 11.9692 13.4937 11.79 13.4832ZM11.6325 20.9727C12.2513 20.9727 12.765 21.4789 12.765 22.0977C12.765 22.7164 12.2513 23.2227 11.6325 23.2227C11.013 23.2227 10.5 22.7164 10.5 22.0977C10.5 21.4789 11.013 20.9727 11.6325 20.9727ZM11.6325 21.7227C11.415 21.7227 11.25 21.8877 11.25 22.0977C11.25 22.3077 11.415 22.4727 11.6325 22.4727C11.85 22.4727 12.015 22.3077 12.015 22.0977C12.015 21.8877 11.85 21.7227 11.6325 21.7227Z" fill="#B1B1B1"/>
</g>
<defs>
<clipPath id="clip0_5574_22441">
<rect width="24" height="24" fill="white" transform="matrix(-1 0 0 1 24 0.722656)"/>
</clipPath>
</defs>
</svg>
